<svg id="logosandtypes_com" xmlns="http://www.w3.org/2000/svg" viewBox="0 0 150 150"><style>.st1{fill:#54a3da}</style><path d="M0 0h150v150H0V0z" fill="none" id="Layer_3"/><g id="flannel"><path class="st1" d="M58.1 68.8h12.6c.6 0 1.2-.5 1.2-1.2v-21c0-15.6 12.7-28.2 28.2-28.2h8.4c.6 0 1.2-.5 1.2-1.2V4.7c0-.6-.5-1.2-1.2-1.2h-8.4C76.3 3.5 57 22.9 57 46.7v21c0 .6.5 1.1 1.1 1.1z"/><path class="st1" d="M111.7 49.7H74.9c-.6 0-1.2.5-1.2 1.2v12.6c0 .6.5 1.2 1.2 1.2h34.4c.6 0 1.1-.4 1.2-1l2.4-12.5v-.3c0-.7-.6-1.2-1.2-1.2zM107.7 70.7H95.9c-.6 0-1.2.5-1.2 1.2v12.6c0 .6.5 1.2 1.2 1.2h9.4c.6 0 1.1-.4 1.2-1l2.4-12.5v-.3c0-.7-.5-1.2-1.2-1.2zM108.5 24.5h-8.4C87.9 24.5 78 34.4 78 46.7c0 .6.5 1.2 1.2 1.2h12.6c.6 0 1.2-.5 1.2-1.2 0-4 3.2-7.2 7.2-7.2h8.4c.6 0 1.2-.5 1.2-1.2V25.7c-.1-.7-.6-1.2-1.3-1.2zM91.7 66.5H79.1c-.6 0-1.2.5-1.2 1.2v46.2c0 7.5-2.9 14.6-8.3 20-.2.2-.3.5-.3.8 0 .3.1.6.3.8l8.9 8.9c.2.2.5.3.8.3s.6-.1.8-.3c8.2-8.2 12.6-19 12.6-30.5V67.7c.2-.7-.3-1.2-1-1.2z"/><path class="st1" d="M71.9 88.6c0-.6-.5-1.2-1.2-1.2H58.1c-.6 0-1.2.5-1.2 1.2v25.2c0 1.9-.8 3.7-2.1 5.1-.5.5-.5 1.2 0 1.7l8.9 8.9c.2.2.5.3.8.3s.6-.1.8-.3c4.2-4.2 6.5-9.8 6.5-15.7l.1-25.2zM76.1 84.4V71.8c0-.6-.5-1.2-1.2-1.2H40.5c-.6 0-1.1.4-1.2 1L37 84.2c-.1.3 0 .7.3 1s.6.4.9.4H75c.6 0 1.1-.5 1.1-1.2zM42.1 64.6h11.8c.6 0 1.2-.5 1.2-1.2V50.9c0-.6-.5-1.2-1.2-1.2h-9.5c-.6 0-1.1.4-1.2 1l-2.4 12.6c-.1.3 0 .7.3 1 .3.2.6.3 1 .3z"/></g></svg>